<svg width="1440" height="956" viewBox="0 0 1440 956" fill="none" xmlns="http://www.w3.org/2000/svg">
<path d="M1440 0H0V510H1440V0Z" fill="url(#paint0_linear)"/>
<path d="M396 300.8C431.788 300.8 460.8 271.788 460.8 236C460.8 200.212 431.788 171.2 396 171.2C360.212 171.2 331.2 200.212 331.2 236C331.2 271.788 360.212 300.8 396 300.8Z" fill="white"/>
<path d="M1044 300.8C1079.79 300.8 1108.8 271.788 1108.8 236C1108.8 200.212 1079.79 171.2 1044 171.2C1008.21 171.2 979.2 200.212 979.2 236C979.2 271.788 1008.21 300.8 1044 300.8Z" fill="white"/>
<defs>
<linearGradient id="paint0_linear" x1="720" y1="0" x2="720" y2="510" gradientUnits="userSpaceOnUse">
<stop stop-color="#A29BFE"/>
<stop offset="1" stop-color="#74B9FF"/>
</linearGradient>
</defs>
</svg>
