<svg width="25" height="14" viewBox="0 0 25 14" fill="none" xmlns="http://www.w3.org/2000/svg">
<path d="M19.2077 12V14H7.0765V12C7.0765 12 7.0765 8 13.1421 8C19.2077 8 19.2077 12 19.2077 12ZM16.1749 3C16.1749 2.40666 15.997 1.82664 15.6637 1.33329C15.3305 0.839943 14.8568 0.455426 14.3027 0.228363C13.7485 0.00129986 13.1387 -0.0581102 12.5504 0.0576455C11.9621 0.173401 11.4217 0.459123 10.9976 0.878681C10.5734 1.29824 10.2846 1.83279 10.1676 2.41473C10.0505 2.99667 10.1106 3.59987 10.3401 4.14805C10.5697 4.69623 10.9584 5.16477 11.4572 5.49441C11.9559 5.82405 12.5422 6 13.1421 6C13.9464 6 14.7178 5.68393 15.2866 5.12132C15.8553 4.55871 16.1749 3.79565 16.1749 3ZM19.4098 8.06C19.9624 8.5643 20.408 9.17244 20.7204 9.84891C21.0328 10.5254 21.2059 11.2566 21.2295 12V14H24.2623V12C24.2623 12 24.2623 8.55 19.4098 8.06ZM18.1967 1.1415e-06C17.8913 0.000181955 17.5877 0.0474144 17.297 0.140001C17.8884 0.97897 18.2055 1.97718 18.2055 3C18.2055 4.02282 17.8884 5.02103 17.297 5.86C17.5877 5.95259 17.8913 5.99982 18.1967 6C19.0011 6 19.7725 5.68393 20.3412 5.12132C20.91 4.55871 21.2295 3.79565 21.2295 3C21.2295 2.20435 20.91 1.44129 20.3412 0.878681C19.7725 0.316072 19.0011 1.1415e-06 18.1967 1.1415e-06ZM8.08743 5H5.05465V2H3.03279V5H0V7H3.03279V10H5.05465V7H8.08743V5Z" fill="black"/>
</svg>
